<svg transform="scale(1)" version="1.1" id="_0622_x5F_Ice_Cream" xmlns="http://www.w3.org/2000/svg" xmlns:xlink="http://www.w3.org/1999/xlink" x="0px" y="0px" viewBox="0 0 500 500" xml:space="preserve" class="show_show__wrapper__graphic__5Waiy "><title>React</title><style type="text/css">
	.st0{fill:#0b4975;}
	.st1{fill:#FFFFFF;}
	.st2{fill:#1173ba;}
</style><g id="ice-cream"><g><rect class="st0" x="238.8" y="343.4" width="17.7" height="74.3"></rect><path class="st0" d="M256.5,418.1h-17.7c-0.3,0-0.5-0.2-0.5-0.5v-74.3c0-0.3,0.2-0.5,0.5-0.5h17.7c0.3,0,0.5,0.2,0.5,0.5v74.3
			C257,417.9,256.8,418.1,256.5,418.1z M239.3,417.1H256v-73.3h-16.7V417.1z"></path></g><g><path class="st0" d="M196.3,158.6L135,81.5c-3.7-4.4-10.2-5.2-14.8-1.8l0,0c-4.2,3-5.1,8.8-2.1,12.9c0.1,0.2,0.3,0.4,0.4,0.5
			l71.8,86.8L196.3,158.6z"></path><path class="st0" d="M190.3,180.6c-0.1,0-0.3-0.1-0.4-0.2l-71.8-86.8c-0.2-0.2-0.3-0.4-0.4-0.6c-1.5-2.1-2.1-4.7-1.7-7.3
			s1.8-4.8,3.9-6.4c4.8-3.6,11.6-2.8,15.5,1.8l61.3,77.1c0.1,0.1,0.1,0.3,0.1,0.4l-6,21.5c-0.1,0.2-0.2,0.3-0.4,0.4
			C190.4,180.6,190.3,180.6,190.3,180.6z M126.7,78.1c-2.2,0-4.3,0.7-6.2,2c-1.9,1.4-3.2,3.4-3.5,5.7c-0.4,2.3,0.2,4.6,1.5,6.5
			c0.1,0.2,0.3,0.3,0.4,0.5l71.2,86.1l5.7-20.3l-61.2-76.9C132.6,79.4,129.6,78.1,126.7,78.1z"></path></g><g><path class="st1" d="M138.6,86.1c0.3,0.4-5.9,24.4-5.9,24.4l6.3,7.7l6.3-23.6L138.6,86.1z"></path><path class="st0" d="M139.1,118.7c-0.1,0-0.3-0.1-0.4-0.2l-6.3-7.7c-0.1-0.1-0.1-0.3-0.1-0.4c2.3-9.1,5.8-23,5.8-24.2
			c0-0.2,0-0.4,0.2-0.5c0.2-0.2,0.5-0.1,0.7,0.1c0,0,0,0,0,0l6.7,8.5c0.1,0.1,0.1,0.3,0.1,0.4l-6.3,23.6c0,0.2-0.2,0.3-0.4,0.4
			C139.2,118.7,139.2,118.7,139.1,118.7z M133.3,110.4l5.6,6.7l5.9-22.4l-5.9-7.4C138.5,89.6,137.2,95.3,133.3,110.4z"></path></g><g><path class="st1" d="M151.8,102.7c0.3,0.4-5.8,23.9-5.8,23.9l6.4,7.7l6.1-23.2L151.8,102.7z"></path><path class="st0" d="M152.4,134.8c-0.1,0-0.3-0.1-0.4-0.2l-6.4-7.7c-0.1-0.1-0.1-0.3-0.1-0.4c2.3-8.9,5.7-22.4,5.8-23.6
			c0-0.2,0-0.4,0.2-0.5c0.2-0.2,0.5-0.1,0.7,0.1c0,0,0,0,0,0l6.7,8.4c0.1,0.1,0.1,0.3,0.1,0.4l-6.1,23.2c0,0.2-0.2,0.3-0.4,0.4
			C152.4,134.8,152.4,134.8,152.4,134.8z M146.6,126.5l5.6,6.7l5.8-22l-5.8-7.3C151.7,106.1,150.4,111.7,146.6,126.5z"></path></g><g><path class="st1" d="M164.8,119.3c0.3,0.4-5.6,23.3-5.6,23.3l6.4,7.7l6-22.5L164.8,119.3z"></path><path class="st0" d="M165.6,150.7c-0.1,0-0.3-0.1-0.4-0.2l-6.4-7.7c-0.1-0.1-0.1-0.3-0.1-0.4c2.2-8.7,5.5-21.8,5.6-23
			c0-0.2,0-0.4,0.2-0.5c0.2-0.2,0.5-0.1,0.7,0.1c0,0,0,0,0,0l6.8,8.4c0.1,0.1,0.1,0.3,0.1,0.4l-6,22.5c0,0.2-0.2,0.3-0.4,0.4
			C165.7,150.7,165.6,150.7,165.6,150.7z M159.8,142.4l5.6,6.7l5.7-21.3l-5.9-7.4C164.8,122.6,163.5,128.1,159.8,142.4z"></path></g><g><path class="st1" d="M178.1,135.7c0.3,0.4-5.5,22.4-5.5,22.4l6.4,7.6l5.7-21.6L178.1,135.7z"></path><path class="st0" d="M179,166.2c-0.1,0-0.3-0.1-0.4-0.2l-6.4-7.6c-0.1-0.1-0.1-0.3-0.1-0.4c2.2-8.3,5.4-21,5.5-22.2
			c0-0.2,0-0.4,0.2-0.5c0.2-0.2,0.5-0.1,0.7,0.1c0,0,0,0,0,0l6.6,8.4c0.1,0.1,0.1,0.3,0.1,0.4l-5.7,21.6c0,0.2-0.2,0.3-0.4,0.4
			C179,166.2,179,166.2,179,166.2z M173.1,158l5.6,6.7l5.4-20.5l-5.8-7.3C178,139,176.7,144.4,173.1,158z"></path></g><g><path class="st1" d="M183.9,169.5L91,128.4c-5.3-2.4-11.7-0.1-14,5l0,0c-2.1,4.8,0.1,10.3,4.9,12.4c0.1,0.1,0.3,0.1,0.4,0.2
			l107,45.1L183.9,169.5z"></path><path class="st0" d="M189.3,191.6c-0.1,0-0.1,0-0.2,0l-107-45.1c-0.1,0-0.3-0.1-0.4-0.2c-2.4-1.1-4.3-3-5.3-5.5
			c-1-2.5-0.9-5.2,0.1-7.6c2.5-5.4,9.1-7.8,14.7-5.3l92.9,41.1c0.1,0.1,0.2,0.2,0.3,0.3l5.4,21.6c0,0.2,0,0.4-0.2,0.5
			C189.6,191.6,189.4,191.6,189.3,191.6z M86.6,128c-3.8,0-7.6,2.1-9.2,5.6c-0.9,2.2-1,4.6-0.1,6.8c0.9,2.2,2.6,4,4.8,4.9
			c0.1,0.1,0.3,0.1,0.4,0.2l106.1,44.7l-5.1-20.4l-92.7-41C89.5,128.3,88,128,86.6,128z"></path></g><g><path class="st2" d="M96.6,130.9c0.4,0.2,7.1,24.1,7.1,24.1l9.5,4l-6.3-23.6L96.6,130.9z"></path><path class="st0" d="M113.1,159.5c-0.1,0-0.1,0-0.2,0l-9.5-4c-0.1-0.1-0.2-0.2-0.3-0.3c-2.5-9.1-6.4-22.8-7-23.9
			c-0.1-0.1-0.2-0.3-0.1-0.5c0.1-0.3,0.4-0.4,0.7-0.3c0,0,0,0,0,0l10.2,4.5c0.1,0.1,0.2,0.2,0.3,0.3l6.3,23.6c0,0.2,0,0.4-0.2,0.5
			C113.4,159.4,113.2,159.5,113.1,159.5z M104.1,154.6l8.3,3.5l-6-22.4l-8.9-4C98.2,134,99.9,139.6,104.1,154.6z"></path></g><g><path class="st2" d="M116.5,139.7c0.4,0.2,6.9,23.6,6.9,23.6l9.5,4l-6.2-23.1L116.5,139.7z"></path><path class="st0" d="M132.9,167.8c-0.1,0-0.1,0-0.2,0l-9.5-4c-0.1-0.1-0.2-0.2-0.3-0.3c-2.4-8.9-6.2-22.4-6.8-23.4
			c-0.1-0.1-0.2-0.3-0.1-0.5c0.1-0.3,0.4-0.4,0.7-0.3c0,0,0,0,0,0l10.1,4.5c0.1,0.1,0.2,0.2,0.3,0.3l6.2,23.1c0,0.2,0,0.4-0.2,0.5
			C133.1,167.8,133,167.8,132.9,167.8z M123.8,163l8.3,3.5l-5.9-21.9l-8.8-3.9C118.1,142.8,119.8,148.3,123.8,163z"></path></g><g><path class="st2" d="M136.4,148.6c0.4,0.2,6.8,23,6.8,23l9.5,4l-6.1-22.5L136.4,148.6z"></path><path class="st0" d="M152.6,176.1c-0.1,0-0.1,0-0.2,0l-9.5-4c-0.1-0.1-0.2-0.2-0.3-0.3c-2.4-8.6-6.1-21.7-6.7-22.8
			c-0.1-0.1-0.2-0.3-0.1-0.5c0.1-0.3,0.4-0.4,0.7-0.3l10.2,4.5c0.1,0.1,0.2,0.2,0.3,0.3l6.1,22.5c0,0.2,0,0.4-0.2,0.5
			C152.8,176.1,152.7,176.1,152.6,176.1z M143.5,171.3l8.3,3.5l-5.7-21.3l-8.9-3.9C138,151.7,139.6,157.1,143.5,171.3z"></path></g><g><path class="st2" d="M156.3,157.3c0.4,0.2,6.4,22.2,6.4,22.2l9.4,3.9l-5.8-21.6L156.3,157.3z"></path><path class="st0" d="M172.2,183.9c-0.1,0-0.1,0-0.2,0l-9.5-3.9c-0.1-0.1-0.3-0.2-0.3-0.3c-2.3-8.3-5.8-21-6.3-22
			c-0.1-0.1-0.2-0.3-0.1-0.5c0.1-0.3,0.4-0.4,0.7-0.3c0,0,0,0,0,0l10.1,4.5c0.1,0.1,0.2,0.2,0.3,0.3l5.8,21.6c0,0.2,0,0.4-0.2,0.5
			C172.4,183.9,172.3,183.9,172.2,183.9z M163.1,179.2l8.3,3.4l-5.5-20.4l-8.8-3.9C157.9,160.3,159.5,165.6,163.1,179.2z"></path></g><g><path class="st2" d="M319.8,169.5c0,0,14.2-66.5-40.8-79.9s-107.8,28-91.2,77.7S319.8,169.5,319.8,169.5z"></path><path class="st0" d="M231,190.4c-10.1,0-19.4-1.4-27-4.8c-8.3-3.8-14-9.9-16.7-18.1c-6.8-20.2-2.3-40.9,12.2-56.7
			c18.7-20.3,49.9-28.8,79.6-21.6c28.7,7,38.4,28.5,41.4,45.4c3.3,18.2-0.2,35-0.2,35.1c0,0.2-0.1,0.3-0.3,0.4
			C319.4,170.2,269.8,190.4,231,190.4z M258,87.6c-22.3,0-43.6,8.5-57.7,23.8c-14.3,15.5-18.6,35.8-12,55.7
			c2.7,7.9,8.1,13.8,16.2,17.5c35.1,16,110-13.5,114.9-15.5c0.4-2.2,3.2-17.7,0.2-34.5c-4.4-24.1-18.1-39-40.7-44.5
			C271.9,88.4,264.9,87.6,258,87.6z M319.8,169.5L319.8,169.5L319.8,169.5z"></path></g><g><path class="st0" d="M246.7,197.9c0,0,16.6-39.5,63.6-38.6s59.4,27.5,61.3,51.9s-15.7,57.7-56.5,56.4s-79.3,8-81.7-23.1
			S246.7,197.9,246.7,197.9z"></path><path class="st0" d="M275.3,268.4c-23.6,0-40.8-3-42.4-23.9c-1.2-16.2,2.5-28.1,5.8-35.2c3.4-7.3,7-11.1,7.6-11.7
			c0.9-2.1,18.3-39.7,64.1-38.8c38.3,0.7,59.1,18.3,61.7,52.4c1.1,14.5-4.5,30.2-14.8,41c-10.5,11-25.1,16.5-42.2,15.9
			c-8.7-0.3-17.2-0.1-25.4,0.1C284.6,268.3,279.8,268.4,275.3,268.4z M308.8,159.8c-45,0-61.5,37.9-61.6,38.3c0,0.1-0.1,0.1-0.1,0.2
			c-0.2,0.2-15.5,15.7-13.1,46.2c1.8,24,25.6,23.4,55.7,22.7c8.2-0.2,16.8-0.4,25.5-0.1c16.8,0.6,31.2-4.9,41.5-15.6
			c10.1-10.5,15.6-25.9,14.5-40.2c-2.6-33.4-23-50.7-60.8-51.4C309.8,159.8,309.3,159.8,308.8,159.8z M246.7,197.9L246.7,197.9
			L246.7,197.9z"></path></g><g><path class="st1" d="M154.1,261c0,0-45.1-19.6-25.7-66.6s96.9-44.4,117.8-20s11.9,74.8-6.2,85.7S154.1,261,154.1,261z"></path><path class="st0" d="M207.8,265.8c-5.3,0-11.1-0.2-17.5-0.6c-19-1.1-36.1-3.7-36.2-3.7c0,0-0.1,0-0.1,0c-0.1,0-11.5-5.1-20.3-15.8
			c-8.2-9.9-15.8-26.9-5.6-51.5c4.6-11.2,17.5-30.7,51.9-36.2c26.6-4.2,55.3,2.7,66.8,16.1c10.2,12,14.4,31.5,11.1,52.3
			c-2.6,16.1-9.2,29.2-17.4,34.2C234.6,264,223.7,265.8,207.8,265.8z M154.2,260.5c2.5,0.4,68.1,9.8,85.5-0.8
			c7.9-4.8,14.4-17.7,16.9-33.5c3.3-20.5-0.8-39.8-10.9-51.5c-11.3-13.2-39.6-20-65.9-15.8c-33.9,5.4-46.6,24.6-51.1,35.6
			c-9.9,24.1-2.5,40.7,5.5,50.4C142.7,255.2,153.4,260.1,154.2,260.5z"></path></g><g><path class="st2" d="M314.5,137.8c12.9-3.5,22.5,5.5,23.5,14.9s-6.6,19.7-21.2,19.6C299.7,172,288,146.7,314.5,137.8z"></path><path class="st0" d="M316.9,172.7c-0.1,0-0.2,0-0.2,0c-8.8-0.1-16.8-6.9-18.2-15.4c-1.4-8.7,4.5-16.2,15.7-20c0,0,0,0,0,0
			c5.9-1.6,11.6-0.8,16.2,2.4c4.4,3,7.3,7.8,7.8,12.9c0.5,4.8-1.2,9.6-4.5,13.4C329.9,170.3,323.9,172.7,316.9,172.7z M314.6,138.2
			c-10.7,3.6-16.4,10.7-15,18.9c1.3,8.1,8.8,14.5,17.2,14.6c0.1,0,0.1,0,0.2,0c6.7,0,12.4-2.3,16.2-6.4c3.2-3.5,4.7-8.1,4.3-12.6
			c-0.5-4.8-3.3-9.3-7.4-12.1C325.6,137.5,320.2,136.7,314.6,138.2z"></path></g><g><path class="st0" d="M317,141c-2.4-7.9,0.6-14.1,4.5-16.2c1.2-0.6,2.7-0.3,3.5,0.8l0,0c0.6,0.9,0.6,2.1-0.1,2.9
			c-2.8,3.3-4.1,7.6-3.8,11.9c0,1.1-0.9,2-2,2l0,0C318.1,142.4,317.3,141.9,317,141z"></path><path class="st0" d="M318.9,142.9c-1.1,0-2.1-0.7-2.4-1.8c0,0,0,0,0,0c-2.4-8,0.5-14.5,4.7-16.8c1.4-0.8,3.2-0.3,4.1,1
			c0.8,1.1,0.7,2.5-0.2,3.5c-2.7,3.2-4,7.3-3.7,11.5C321.5,141.8,320.3,142.9,318.9,142.9z M317.5,140.9c0.2,0.6,0.8,1.1,1.5,1.1
			c0.8,0,1.5-0.7,1.5-1.5c-0.3-4.4,1.1-8.8,3.9-12.2c0.6-0.7,0.6-1.6,0.1-2.3c-0.6-0.9-1.9-1.2-2.8-0.7
			C317.9,127.3,315.2,133.4,317.5,140.9z"></path></g><path class="st1" d="M352.1,191.5c2.4,2.8,4,6.2,4.9,9.8c0.3,1.3,2.2,0.7,1.9-0.5c-0.9-3.9-2.8-7.6-5.4-10.7c-0.4-0.4-1-0.4-1.4,0
		c0,0,0,0,0,0C351.7,190.5,351.7,191.1,352.1,191.5L352.1,191.5z"></path><path class="st1" d="M320.2,185.8c2.3,3.2,4.2,6.5,5.7,10.1c0.1,0.5,0.7,0.8,1.2,0.7c0,0,0,0,0,0c0.5-0.1,0.8-0.7,0.7-1.2
		c0,0,0,0,0,0c-1.6-3.7-3.5-7.3-5.9-10.6c-0.3-0.5-0.9-0.6-1.4-0.4C320.2,184.7,320,185.3,320.2,185.8L320.2,185.8z"></path><path class="st1" d="M344.2,208.1l5.1,11.2c0.3,0.5,0.9,0.6,1.4,0.4c0.5-0.3,0.6-0.9,0.4-1.4c0,0,0,0,0,0l-5.1-11.2
		c-0.3-0.5-0.9-0.7-1.3-0.4C344.1,206.9,343.9,207.5,344.2,208.1C344.2,208.1,344.2,208.1,344.2,208.1L344.2,208.1z"></path><path class="st1" d="M281.7,182c4.2,3.5,7.4,8,9.5,13c0.1,0.5,0.7,0.8,1.2,0.7c0,0,0,0,0,0c0.5-0.1,0.8-0.7,0.7-1.2c0,0,0,0,0,0
		c-2.1-5.4-5.6-10.1-10-13.9C282.1,179.8,280.7,181.2,281.7,182L281.7,182z"></path><path class="st1" d="M297.6,175c0.8,0.7,1.6,1.4,2.3,2.2c0.3,0.4,0.7,0.8,1,1.2c0,0.1,0.1,0.1,0.1,0.2l0.1,0.1l0.1,0.1l0.1,0.1
		c0.2,0.2,0.3,0.4,0.5,0.7c0.2,0.5,0.8,0.7,1.3,0.5c0.5-0.2,0.7-0.8,0.5-1.3c0-0.1-0.1-0.1-0.1-0.2c-1.3-1.8-2.8-3.5-4.5-4.9
		c-0.4-0.4-1.1-0.3-1.4,0.1C297.3,174.1,297.3,174.6,297.6,175L297.6,175z"></path><path class="st1" d="M276.9,218l7.3,10.5c0.3,0.5,0.9,0.6,1.4,0.4c0.5-0.3,0.6-0.9,0.4-1.4l-7.3-10.5c-0.3-0.5-0.9-0.6-1.4-0.4
		c0,0,0,0,0,0C276.8,216.9,276.6,217.5,276.9,218C276.9,218,276.9,218,276.9,218L276.9,218z"></path><path class="st1" d="M295.1,208.1c2.2,3.1,4.7,6.1,7.3,8.9c0.9,0.9,2.3-0.5,1.4-1.4c-2.5-2.7-4.9-5.5-7-8.5
		c-0.3-0.5-0.9-0.6-1.4-0.4c0,0,0,0,0,0C295,207,294.8,207.6,295.1,208.1C295.1,208.1,295.1,208.1,295.1,208.1L295.1,208.1z"></path><path class="st1" d="M326.3,219.6c1.8,3.1,3.8,6,6,8.8c0.4,0.4,1,0.4,1.4,0c0.4-0.4,0.4-1,0-1.4c-2.1-2.7-4-5.5-5.6-8.4
		c-0.3-0.5-0.9-0.6-1.4-0.3C326.2,218.6,326.1,219.2,326.3,219.6L326.3,219.6z"></path><path class="st1" d="M336,177c1.5,2.3,3.1,4.5,4.8,6.6c0.4,0.4,1,0.4,1.4,0c0,0,0,0,0,0c0.4-0.4,0.4-1,0-1.4c0,0,0,0,0,0
		c-1.6-2-3.1-4-4.5-6.1c-0.3-0.5-0.9-0.7-1.3-0.4C335.9,175.8,335.7,176.4,336,177C336,176.9,336,177,336,177L336,177z"></path><path class="st0" d="M279.6,99.6c4.1,2.2,7.7,5.3,10.7,8.9c0.4,0.4,1,0.5,1.4,0.1s0.5-1,0.1-1.4c0,0-0.1-0.1-0.1-0.1
		c-3.1-3.8-6.8-6.9-11.1-9.2C279.4,97.3,278.4,99,279.6,99.6L279.6,99.6z"></path><path class="st0" d="M248.2,98.7c4.2,2.6,8.4,5.2,12.7,7.8c1.1,0.7,2.1-1,1-1.7c-4.2-2.6-8.4-5.2-12.7-7.8c-0.5-0.2-1.1,0-1.3,0.5
		C247.7,97.9,247.9,98.5,248.2,98.7z"></path><path class="st0" d="M276.5,116.2c2.5,3.1,4.7,6.5,6.6,10c0.6,1.1,2.3,0.1,1.7-1c-2-3.7-4.3-7.1-7-10.4c-0.4-0.4-1-0.4-1.4,0
		C276.1,115.2,276.1,115.8,276.5,116.2L276.5,116.2z"></path><path class="st0" d="M301.4,122.3c0.7,0.6,1.3,1.2,1.9,1.9c0,0,0.2,0.3,0.2,0.3s-0.1-0.2,0,0l0.1,0.2l0.4,0.5
		c0.2,0.4,0.5,0.8,0.7,1.1c0.3,0.5,0.9,0.6,1.4,0.3c0.5-0.3,0.6-0.9,0.4-1.4c-0.9-1.6-2.1-3.1-3.5-4.4c-0.4-0.4-1-0.4-1.4,0
		c0,0,0,0,0,0C301.1,121.3,301.1,121.9,301.4,122.3L301.4,122.3z"></path><path class="st0" d="M242.2,126.3c3.7,2.4,7.2,5.2,10.4,8.3c0.4,0.4,1.1,0.3,1.4-0.1c0.3-0.4,0.3-0.9,0-1.3
		c-3.3-3.3-6.9-6.2-10.8-8.7C242.1,123.9,241.1,125.6,242.2,126.3L242.2,126.3z"></path><path class="st0" d="M270.2,141.3l3.4,4.5c0.1,0.2,0.4,0.4,0.6,0.5c0.3,0.1,0.5,0,0.8-0.1c0.5-0.3,0.6-0.9,0.4-1.4c0,0,0,0,0,0
		l-3.4-4.5c-0.1-0.2-0.3-0.4-0.6-0.5c-0.5-0.1-1.1,0.2-1.2,0.7C270,140.8,270,141,270.2,141.3L270.2,141.3z"></path><path class="st0" d="M209.9,123.2c0.2,0.2,0.5,0.4,0.7,0.6h0.1l0.1,0.1l0.4,0.3c0.5,0.4,0.9,0.8,1.4,1.2c0.9,0.8,1.7,1.7,2.5,2.7
		c0.4,0.4,1,0.4,1.4,0c0.4-0.4,0.4-1,0-1.4c-1.6-2-3.5-3.7-5.6-5.2c-0.5-0.3-1.1-0.1-1.4,0.4C209.2,122.3,209.4,122.9,209.9,123.2
		C209.9,123.2,209.9,123.2,209.9,123.2L209.9,123.2z"></path><path class="st0" d="M221.3,107.3l0.6,0.4l0.1,0.1c0,0,0.2,0.2,0.1,0.1s0.1,0.1,0.1,0.1l0.1,0.1c0.4,0.3,0.8,0.7,1.1,1
		c0.7,0.7,1.4,1.4,2,2.2c0.4,0.4,1,0.4,1.4,0c0.4-0.4,0.4-1,0-1.4c-1.3-1.6-2.9-3.1-4.6-4.2c-0.5-0.2-1,0-1.3,0.4
		C220.7,106.5,220.9,107.1,221.3,107.3L221.3,107.3z"></path><path class="st0" d="M222,146c2.8,2,5.2,4.7,6.8,7.8c0.3,0.5,0.9,0.6,1.4,0.3c0.4-0.3,0.6-0.8,0.3-1.3c-1.8-3.4-4.3-6.3-7.5-8.5
		c-0.5-0.3-1.1-0.1-1.4,0.4c0,0,0,0,0,0C221.4,145.1,221.5,145.7,222,146z"></path><path class="st0" d="M250.7,149.3l3.2,4.2c0.1,0.2,0.4,0.4,0.6,0.5c0.3,0.1,0.5,0,0.8-0.1c0.5-0.3,0.6-0.9,0.4-1.4c0,0,0,0,0,0
		l-3.2-4.2c-0.1-0.2-0.4-0.4-0.6-0.5c-0.3-0.1-0.5,0-0.8,0.1C250.6,148.2,250.4,148.8,250.7,149.3
		C250.7,149.3,250.7,149.3,250.7,149.3z"></path><path class="st0" d="M199.1,144.8l2.4,2.8c0.2,0.2,0.4,0.3,0.7,0.3c0.3,0,0.5-0.1,0.7-0.3c0.2-0.2,0.3-0.4,0.3-0.7
		c0-0.3-0.1-0.5-0.3-0.7l-2.4-2.8c-0.2-0.2-0.4-0.3-0.7-0.3c-0.3,0-0.5,0.1-0.7,0.3c-0.2,0.2-0.3,0.4-0.3,0.7
		C198.8,144.4,198.9,144.6,199.1,144.8z"></path><path class="st2" d="M219.5,173.9c2.5,2.5,4.9,5.1,7.1,7.9c0.4,0.4,1,0.4,1.4,0c0,0,0,0,0,0c0.4-0.4,0.4-1,0-1.4
		c-2.2-2.8-4.6-5.4-7.1-7.9C219.9,171.6,218.5,173,219.5,173.9z"></path><path class="st2" d="M179.8,169.7c3.7,1.2,7.1,3.3,9.8,6.2c0.9,1,2.3-0.5,1.4-1.4c-2.9-3.2-6.6-5.5-10.6-6.8
		C179.1,167.4,178.6,169.3,179.8,169.7z"></path><path class="st2" d="M211.1,188.5c0.8,0.8,1.6,1.7,2.4,2.6c0.4,0.4,0.7,0.9,1.1,1.3l0.1,0.1c-0.1-0.1,0.1,0.1,0.1,0.1
		s0.2,0.2,0.3,0.4l0.5,0.7c0.3,0.5,0.9,0.6,1.4,0.3c0.4-0.3,0.6-0.8,0.3-1.3c-1.5-2-3.1-4-4.8-5.7c-0.4-0.4-1-0.4-1.4,0
		C210.7,187.5,210.7,188.1,211.1,188.5L211.1,188.5z"></path><path class="st2" d="M152.5,180.1c2.8,2,5.5,4.3,8,6.8c0.4,0.4,1,0.4,1.4,0c0.4-0.4,0.4-1,0-1.4c-2.6-2.6-5.4-4.9-8.4-7.1
		c-0.5-0.3-1.1-0.1-1.4,0.4C151.9,179.2,152,179.8,152.5,180.1C152.5,180.1,152.5,180.1,152.5,180.1L152.5,180.1z"></path><path class="st2" d="M190.7,201.3l5,3.6c0.5,0.3,1.1,0.1,1.4-0.4c0,0,0,0,0,0c0.3-0.5,0.1-1.1-0.4-1.4c0,0,0,0,0,0l-5-3.6
		c-0.5-0.3-1.1-0.1-1.4,0.4c0,0,0,0,0,0C190.1,200.4,190.3,201,190.7,201.3C190.7,201.3,190.7,201.3,190.7,201.3z"></path><path class="st2" d="M202.3,167.9c0.9,1,1.9,1.8,3,2.5c0.5,0.3,1.1,0.2,1.4-0.3c0.3-0.5,0.2-1.1-0.3-1.4c0,0,0,0-0.1,0
		c-0.4-0.2-0.7-0.5-1-0.7l0.2,0.1c-0.6-0.5-1.2-1-1.7-1.6c-0.4-0.4-1-0.4-1.4,0c0,0,0,0,0,0C202,166.8,202,167.5,202.3,167.9
		C202.4,167.9,202.4,167.9,202.3,167.9L202.3,167.9z"></path><path class="st2" d="M241.2,200.3l5.8,5.8c0.4,0.4,1.1,0.3,1.4-0.1c0.3-0.4,0.3-0.9,0-1.3l-5.8-5.8c-0.4-0.4-1-0.5-1.4-0.1
		s-0.5,1-0.1,1.4C241.1,200.2,241.2,200.2,241.2,200.3z"></path><path class="st2" d="M159,207.4c2.7,1.7,5.1,3.8,7.2,6.1c0.4,0.4,1,0.4,1.4,0c0.4-0.4,0.4-1,0-1.4c0,0,0,0,0,0
		c-2.3-2.5-4.8-4.6-7.6-6.4c-0.5-0.3-1.1-0.1-1.4,0.4C158.4,206.5,158.5,207.1,159,207.4C159,207.4,159,207.4,159,207.4z"></path><path class="st2" d="M172.3,194.9l2.4,2.2c0.2,0.2,0.4,0.3,0.7,0.3c0.3,0,0.5-0.1,0.7-0.3c0.2-0.2,0.3-0.4,0.3-0.7
		c0-0.3-0.1-0.5-0.3-0.7l-2.4-2.2c-0.2-0.2-0.4-0.3-0.7-0.3c-0.6,0-1,0.5-1,1C172,194.4,172.1,194.7,172.3,194.9z"></path><path class="st2" d="M139.9,205.9c2.3,1.7,4.5,3.6,6.5,5.7c0.4,0.4,1,0.4,1.4,0c0.4-0.4,0.4-1,0-1.4c0,0,0,0,0,0
		c-2.1-2.2-4.4-4.2-6.9-6c-0.5-0.3-1.1-0.1-1.4,0.4c0,0,0,0,0,0C139.3,205.1,139.4,205.7,139.9,205.9
		C139.9,206,139.9,206,139.9,205.9L139.9,205.9z"></path><path class="st2" d="M187.4,213.4c2.6,2.3,5.1,4.8,7.3,7.5c0.4,0.4,1,0.4,1.4,0s0.4-1,0-1.4c-2.2-2.7-4.7-5.2-7.3-7.5
		c-0.4-0.4-1-0.4-1.4,0S187,213,187.4,213.4L187.4,213.4z"></path><path class="st2" d="M224,210.7c2.8,2.1,5.3,4.7,7.3,7.6c0.3,0.5,0.9,0.6,1.4,0.4c0,0,0,0,0,0c0.5-0.3,0.6-0.9,0.4-1.4
		c-2.2-3.2-4.9-6-8-8.3c-0.5-0.3-1.1-0.1-1.4,0.4c0,0,0,0,0,0C223.4,209.8,223.5,210.4,224,210.7C224,210.7,224,210.7,224,210.7
		L224,210.7z"></path><path class="st2" d="M152.3,224l4,4.7c0.6,0.8,1.6,2.3,2.7,1.6c0.5-0.3,0.7-1,0.4-1.5c0,0,0,0,0,0c-0.3-0.5-1-0.7-1.5-0.4
		c-0.2,0.1-0.3,0.2-0.4,0.4c-0.3,0.4-0.2,1.1,0.2,1.4c0.4,0.3,1.1,0.2,1.4-0.2c0-0.1,0.1-0.1,0.1-0.2l0,0l-0.4,0.4l0,0l-0.5,0.1l0,0
		L158,230c-0.2-0.1-0.4-0.4-0.4-0.6l0.1-0.5l0,0l0.4-0.4l0.8,0.1l-0.1-0.1c0-0.1-0.1-0.1-0.1-0.2l-0.3-0.4l-0.7-0.8l-1.3-1.6
		l-2.6-3.1c-0.4-0.4-1-0.4-1.4,0C152,222.9,152,223.5,152.3,224L152.3,224z"></path><g><path class="st1" d="M118.4,228.7h258.4c3.5-0.1,6.4,2.6,6.5,6c0,0.3,0,0.5,0,0.8c-3.2,25.3-22.4,112.7-135.7,112.7
			S115.1,260.9,112,235.6c-0.3-3.4,2.3-6.5,5.7-6.8C118,228.7,118.2,228.7,118.4,228.7z"></path><path class="st0" d="M247.6,348.8c-48.5,0-85.4-15.8-109.5-47.1c-19.8-25.6-25.2-54.8-26.6-66.1c-0.3-3.7,2.4-7,6.2-7.3
			c0.3,0,0.5,0,0.8,0h258.4c1.8-0.1,3.5,0.6,4.8,1.8c1.3,1.2,2.1,2.9,2.2,4.7c0,0.3,0,0.6,0,0.9
			C380.5,262.2,360.8,348.8,247.6,348.8z M118.2,229.2c-0.2,0-0.3,0-0.5,0c-3.2,0.3-5.5,3.1-5.2,6.2
			c3.3,26.3,22.7,112.3,135.1,112.3c112.3,0,131.9-86,135.2-112.3c0-0.2,0-0.5,0-0.7c-0.1-1.5-0.7-3-1.9-4s-2.6-1.6-4.1-1.5
			l-258.4,0c0,0,0,0,0,0C118.4,229.2,118.3,229.2,118.2,229.2z"></path></g><path class="st0" d="M380.8,249.8H125.8c-0.3,0-0.5-0.2-0.5-0.5s0.2-0.5,0.5-0.5h255.1c0.3,0,0.5,0.2,0.5,0.5
		S381.1,249.8,380.8,249.8z"></path><path class="st0" d="M247.6,348.8c-0.3,0-0.5-0.2-0.5-0.4c0-0.3,0.2-0.5,0.4-0.6c0.2,0,23-2.7,48.5-16.2
		c23.5-12.5,54.1-37,66.5-83.1c0.1-0.3,0.3-0.4,0.6-0.4c0.3,0.1,0.4,0.3,0.4,0.6c-12.5,46.4-43.4,71.2-67,83.8
		C270.9,346.1,247.9,348.8,247.6,348.8C247.7,348.8,247.6,348.8,247.6,348.8z"></path><path class="st0" d="M259.9,326.3c-0.2,0-0.3-0.1-0.4-0.2c-0.2-0.2-0.1-0.5,0.1-0.7c41.3-27.3,49-59.9,49.1-60.3
		c0.1-0.3,0.3-0.4,0.6-0.4c0.3,0.1,0.4,0.3,0.4,0.6c-0.1,0.3-7.8,33.4-49.5,60.9C260.1,326.2,260,326.3,259.9,326.3z"></path><g><path class="st1" d="M249.2,413.6c33.4,0,60,12.4,66.9,24.5H185.9C185.9,438.1,201,415.6,249.2,413.6z"></path><path class="st0" d="M316.1,438.6H185.9c-0.2,0-0.4-0.1-0.4-0.3s-0.1-0.4,0-0.5c0.2-0.2,15.8-22.7,63.7-24.7c0,0,0,0,0,0
			c34.6,0,60.5,12.8,67.3,24.8c0.1,0.2,0.1,0.3,0,0.5C316.4,438.5,316.3,438.6,316.1,438.6z M186.9,437.6h128.3
			c-9.3-14.7-40.6-23.5-66-23.5C207,415.9,190.2,433.7,186.9,437.6z"></path></g></g></svg>